G04 Layer_Color=32896*
%FSLAX25Y25*%
%MOIN*%
G70*
G01*
G75*
%ADD22C,0.00500*%
%ADD35C,0.00787*%
%ADD36C,0.00600*%
D22*
X320000Y237000D02*
Y247500D01*
X311000D02*
X320000D01*
X311000Y237000D02*
X330000D01*
X311000D02*
Y267000D01*
X330000D01*
X298670Y242230D02*
X303317D01*
X298670D02*
Y253788D01*
X303317D01*
Y242230D02*
Y253788D01*
X303170Y242230D02*
X307817D01*
X303170D02*
Y253788D01*
X307817D01*
Y242230D02*
Y253788D01*
X315000Y237500D02*
X315025Y237525D01*
D35*
X330000Y237000D02*
Y267000D01*
D36*
X328500Y268500D02*
Y271166D01*
X327167Y272499D01*
X325834Y271166D01*
Y268500D01*
Y270499D01*
X328500D01*
X324501Y268500D02*
X323168D01*
X323835D01*
Y272499D01*
X324501D01*
X320503Y271832D02*
Y271166D01*
X321169D01*
X319836D01*
X320503D01*
Y269166D01*
X319836Y268500D01*
X317837D02*
X316504D01*
X317170D01*
Y271166D01*
X317837D01*
X314505Y268500D02*
Y271166D01*
X313838D01*
X313172Y270499D01*
Y268500D01*
Y270499D01*
X312505Y271166D01*
X311839Y270499D01*
Y268500D01*
X308506D02*
X309839D01*
X310506Y269166D01*
Y270499D01*
X309839Y271166D01*
X308506D01*
X307840Y270499D01*
Y269833D01*
X310506D01*
X305841Y271832D02*
Y271166D01*
X306507D01*
X305174D01*
X305841D01*
Y269166D01*
X305174Y268500D01*
X301175D02*
X302508D01*
X303175Y269166D01*
Y270499D01*
X302508Y271166D01*
X301175D01*
X300509Y270499D01*
Y269833D01*
X303175D01*
X299176Y271166D02*
Y268500D01*
Y269833D01*
X298510Y270499D01*
X297843Y271166D01*
X297177D01*
X328500Y277999D02*
X325834Y274000D01*
Y277999D02*
X328500Y274000D01*
X324501Y275999D02*
X321835D01*
X320503Y277999D02*
Y274000D01*
X318503D01*
X317837Y274666D01*
Y275333D01*
X318503Y275999D01*
X320503D01*
X318503D01*
X317837Y276666D01*
Y277332D01*
X318503Y277999D01*
X320503D01*
X316504Y276666D02*
Y274666D01*
X315837Y274000D01*
X313838D01*
Y276666D01*
X312505Y274000D02*
X310506D01*
X309839Y274666D01*
X310506Y275333D01*
X311839D01*
X312505Y275999D01*
X311839Y276666D01*
X309839D01*
M02*
