G04 Layer_Color=65535*
%FSLAX25Y25*%
%MOIN*%
G70*
G01*
G75*
%ADD16C,0.01000*%
%ADD22C,0.00500*%
%ADD23C,0.00400*%
D16*
X297361Y239500D02*
G03*
X297361Y239500I-361J0D01*
G01*
X330300Y234500D02*
G03*
X330300Y234500I-300J0D01*
G01*
D22*
X296000Y227500D02*
Y284000D01*
Y227500D02*
X332000D01*
Y284000D01*
X296000D02*
X332000D01*
X315000Y234500D02*
X328000D01*
X315000D02*
Y255500D01*
X328000D01*
Y234500D02*
Y255500D01*
X299189Y275488D02*
X328716D01*
Y283500D01*
X299189D02*
X328716D01*
X299189Y275488D02*
Y283500D01*
X316595Y268650D02*
X328405D01*
X316595Y262350D02*
Y268650D01*
Y262350D02*
X328405D01*
Y268650D01*
X297398Y259358D02*
X298158D01*
X308758D02*
X309602D01*
X308858Y241642D02*
X309602D01*
X297398D02*
X298158D01*
X309602D02*
Y259358D01*
X297398Y241642D02*
Y259358D01*
X297230Y228170D02*
Y232817D01*
Y228170D02*
X308788D01*
Y232817D01*
X297230D02*
X308788D01*
D23*
X310400Y272400D02*
X315700D01*
X310400Y261600D02*
Y272400D01*
Y261600D02*
X315700D01*
Y272400D01*
X309400Y267800D02*
Y273100D01*
X298600D02*
X309400D01*
X298600Y267800D02*
Y273100D01*
Y267800D02*
X309400D01*
X318100Y227900D02*
Y233200D01*
Y227900D02*
X328900D01*
Y233200D01*
X318100D02*
X328900D01*
M02*
