G04 Layer_Physical_Order=2*
G04 Layer_Color=16770953*
%FSLAX25Y25*%
%MOIN*%
G70*
G01*
G75*
%ADD16C,0.01000*%
G04:AMPARAMS|DCode=17|XSize=40mil|YSize=50mil|CornerRadius=10mil|HoleSize=0mil|Usage=FLASHONLY|Rotation=0.000|XOffset=0mil|YOffset=0mil|HoleType=Round|Shape=RoundedRectangle|*
%AMROUNDEDRECTD17*
21,1,0.04000,0.03000,0,0,0.0*
21,1,0.02000,0.05000,0,0,0.0*
1,1,0.02000,0.01000,-0.01500*
1,1,0.02000,-0.01000,-0.01500*
1,1,0.02000,-0.01000,0.01500*
1,1,0.02000,0.01000,0.01500*
%
%ADD17ROUNDEDRECTD17*%
%ADD18C,0.02362*%
%ADD19R,0.03150X0.03799*%
%ADD20C,0.05906*%
%ADD21R,0.05906X0.05906*%
D16*
X305095Y275905D02*
Y281000D01*
X307500Y267000D02*
Y273500D01*
X305095Y275905D02*
X307500Y273500D01*
X297500Y254500D02*
X297500Y254500D01*
X297500Y242000D02*
Y254500D01*
Y242000D02*
X300500Y239000D01*
X297500Y254500D02*
X297500D01*
X299319Y256681D02*
X301500Y254500D01*
X299319Y256681D02*
Y268819D01*
X301500Y251150D02*
Y254500D01*
X309571Y249929D02*
X312000Y247500D01*
X320500Y234000D02*
Y247500D01*
X312000D02*
X320500D01*
X320547Y256453D02*
X325000Y252000D01*
X320547Y256453D02*
Y262953D01*
X316500Y267000D02*
X320547Y262953D01*
X322500Y264500D02*
X325000Y262000D01*
X322500Y264500D02*
Y269724D01*
X313276D02*
X322500D01*
X307500Y258500D02*
Y267000D01*
X316500D01*
X310000Y255500D02*
X313500Y252000D01*
X302000Y258000D02*
X303000D01*
X305500Y255500D02*
X310000D01*
X303000Y258000D02*
X305500Y255500D01*
X301500Y251150D02*
X305500D01*
X328000Y257500D02*
X331000Y254500D01*
Y241500D02*
Y254500D01*
X325000Y242000D02*
X330500D01*
X331000Y241500D01*
Y235000D02*
Y241500D01*
X326500Y230500D02*
X331000Y235000D01*
X326350Y230350D02*
X326500Y230500D01*
X306150Y230350D02*
X326350D01*
X328000Y262000D02*
X330500Y259500D01*
X325000Y262000D02*
X328000D01*
X299319Y268819D02*
X301000Y270500D01*
X312000Y239000D02*
X315000Y242000D01*
X300500Y239000D02*
X312000D01*
X313500Y252000D02*
X315000D01*
X313000Y270000D02*
X313276Y269724D01*
D17*
X322811Y281000D02*
D03*
X316905D02*
D03*
X305095D02*
D03*
X311000D02*
D03*
D18*
X297500Y254500D02*
D03*
X301500Y244500D02*
D03*
X309571Y249929D02*
D03*
X304000Y250500D02*
D03*
X322500Y269724D02*
D03*
X320500Y234000D02*
D03*
X327500Y257000D02*
D03*
X307500Y258500D02*
D03*
X315000Y260000D02*
D03*
X302000Y258000D02*
D03*
X326500Y230500D02*
D03*
X306150Y230350D02*
D03*
X330500Y259500D02*
D03*
X301000Y270500D02*
D03*
X307000Y244500D02*
D03*
X313000Y270000D02*
D03*
D19*
X301000Y244850D02*
D03*
Y251150D02*
D03*
X305500Y244850D02*
D03*
Y251150D02*
D03*
D20*
X325000Y262000D02*
D03*
X315000D02*
D03*
X325000Y252000D02*
D03*
X315000D02*
D03*
X325000Y242000D02*
D03*
D21*
X315000D02*
D03*
M02*
