M48
;Layer_Color=9474304
;FILE_FORMAT=2:5
INCH,LZ
;TYPE=PLATED
T1F00S00C0.01181
T2F00S00C0.02756
%
T01
X03205Y0234
X03265Y02305
X03275Y0257
X03305Y02595
X0315Y026
X0313Y027
X03225Y0269724
X0301Y02705
X0302Y0258
X03075Y02585
X0309571Y0249929
X0304Y02505
X03015Y02445
X0307
X030615Y023035
X02975Y02545
T02
X0316905Y0281
X0322811
X0311
X0305095
M30
